<svg width="160" height="120" viewBox="0 0 160 120" fill="none" xmlns="http://www.w3.org/2000/svg">
<path d="M140 60C140 93.2812 113.047 120 80 120C46.7188 120 20 93.2812 20 60C20 47.5781 23.75 36.0938 30.3125 26.4844C30.7812 25.5469 31.9531 25.3125 32.8906 26.0156C33.5938 26.4844 33.8281 27.6562 33.3594 28.5938C27.2656 37.5 23.75 48.2812 23.75 60C23.75 91.1719 48.8281 116.25 80 116.25C110.938 116.25 136.25 91.1719 136.25 60C136.25 29.7656 111.875 4.92188 81.875 3.98438V28.125C81.875 29.2969 80.9375 30 80 30C78.8281 30 78.125 29.2969 78.125 28.125V1.875C78.125 0.9375 78.8281 0 80 0C113.047 0 140 26.9531 140 60Z" fill="white"/>
<path d="M81.1719 58.8281C81.875 59.5312 81.875 60.7031 81.1719 61.4062C80.4688 62.1094 79.2969 62.1094 78.5938 61.4062L56.0938 38.9062C55.3906 38.2031 55.3906 37.0312 56.0938 36.3281C56.7969 35.625 57.9688 35.625 58.6719 36.3281L81.1719 58.8281Z" fill="#FFBF00"/>
</svg>
